<svg width="78" height="26" viewBox="0 0 78 26" fill="none" xmlns="http://www.w3.org/2000/svg">
<path d="M4.96875 19.4688C6.40625 19.4688 7.34375 19.0208 7.78125 18.125C7.92708 17.8333 8 17.5312 8 17.2188C8 16.3021 7.35417 15.5208 6.0625 14.875C5.79167 14.7292 5.34375 14.5208 4.71875 14.25C3.05208 13.5417 1.9375 12.875 1.375 12.25C0.791667 11.5833 0.5 10.8021 0.5 9.90625C0.5 8.42708 1.3125 7.375 2.9375 6.75C3.70833 6.47917 4.54167 6.34375 5.4375 6.34375C6.85417 6.34375 8.05208 6.63542 9.03125 7.21875C9.03125 6.61458 9.17708 6.27083 9.46875 6.1875C9.57292 6.16667 9.70833 6.15625 9.875 6.15625V10.0625H9.03125C8.98958 8.14583 7.92708 7.17708 5.84375 7.15625C4.34375 7.15625 3.40625 7.61458 3.03125 8.53125C2.94792 8.78125 2.90625 9.03125 2.90625 9.28125C2.90625 10.1771 3.54167 10.9375 4.8125 11.5625C5.10417 11.7083 5.55208 11.9062 6.15625 12.1562C7.84375 12.8438 8.96875 13.4896 9.53125 14.0938C10.1354 14.7812 10.4375 15.5938 10.4375 16.5312C10.4375 18.2604 9.53125 19.4062 7.71875 19.9688C7.01042 20.1979 6.23958 20.3125 5.40625 20.3125C3.84375 20.2917 2.48958 19.9271 1.34375 19.2188C1.34375 19.7604 1.20833 20.0729 0.9375 20.1562C0.8125 20.1771 0.666667 20.1875 0.5 20.1875V15.4375H1.40625C1.44792 18.1042 2.63542 19.4479 4.96875 19.4688ZM18 7.46875V6.6875H11.7188V7.46875H13.0938L16.9062 17.9375C17.3438 19.125 17.7917 19.8125 18.25 20C18.5 20.1042 18.8125 20.1562 19.1875 20.1562H19.75L24.1562 8.53125C24.4062 7.92708 24.6979 7.58333 25.0312 7.5C25.1354 7.47917 25.2396 7.46875 25.3438 7.46875C25.7604 7.46875 26 7.35417 26.0625 7.125C26.0833 7.02083 26.0938 6.875 26.0938 6.6875H21.25V7.46875H23.625L19.7188 17.9062L15.8438 7.46875H18ZM38.375 20.3125C39.875 20.3125 40.7708 19.5625 41.0625 18.0625C41.1042 17.75 41.1354 17.4167 41.1562 17.0625L40.3438 17.0312C40.1979 18.5312 39.8021 19.2917 39.1562 19.3125C38.6354 19.2708 38.3646 18.7396 38.3438 17.7188V11.125C38.3021 7.95833 36.5833 6.36458 33.1875 6.34375C30.7708 6.34375 29.1667 6.89583 28.375 8C28.125 8.35417 28 8.70833 28 9.0625C28 9.72917 28.3125 10.1354 28.9375 10.2812C29.0833 10.3021 29.2188 10.3125 29.3438 10.3125C29.9062 10.3125 30.3125 9.97917 30.5625 9.3125C30.8542 8.5 31.0312 8.04167 31.0938 7.9375C31.4896 7.39583 32.0833 7.125 32.875 7.125C34.7292 7.16667 35.6667 8.25 35.6875 10.375V12.3438C30.5 12.3646 27.6875 13.5625 27.25 15.9375C27.2083 16.1667 27.1875 16.4167 27.1875 16.6875C27.1875 18.3333 27.9062 19.4375 29.3438 20C29.8854 20.2083 30.4688 20.3125 31.0938 20.3125C32.6146 20.3125 33.875 19.7917 34.875 18.75C35.25 18.3542 35.5312 17.9271 35.7188 17.4688C35.9896 19.3438 36.875 20.2917 38.375 20.3125ZM32.25 19.0312C30.9375 19.0312 30.1875 18.3021 30 16.8438C29.9792 16.6354 29.9688 16.4167 29.9688 16.1875C29.9688 14.7917 30.7396 13.9062 32.2812 13.5312C33.0938 13.3438 34.2292 13.2396 35.6875 13.2188V15.8125C35.3333 17.25 34.5833 18.2396 33.4375 18.7812C33.0208 18.9479 32.625 19.0312 32.25 19.0312ZM49.4062 19.2188H47.1562V12.3438C47.3021 10.5521 47.9062 9.20833 48.9688 8.3125C49.3229 8.02083 49.625 7.875 49.875 7.875C50.1875 7.875 50.4896 8.13542 50.7812 8.65625C51.1146 9.23958 51.4479 9.58333 51.7812 9.6875C51.9271 9.72917 52.0729 9.75 52.2188 9.75C52.9062 9.75 53.3542 9.42708 53.5625 8.78125C53.6042 8.61458 53.625 8.45833 53.625 8.3125C53.625 7.35417 53.1458 6.77083 52.1875 6.5625C51.9792 6.52083 51.7604 6.5 51.5312 6.5C50.2396 6.5 49.0938 7.04167 48.0938 8.125C47.6771 8.58333 47.3438 9.10417 47.0938 9.6875L46.9688 6.6875H42.25V7.46875H44.4688V17.375C44.4688 18.3333 44.1875 18.9062 43.625 19.0938C43.3333 19.1771 42.875 19.2188 42.25 19.2188V20H50.1875C50.1875 19.5417 50.0312 19.2917 49.7188 19.25C49.6354 19.2292 49.5312 19.2188 49.4062 19.2188ZM61.1875 19.2188H59.7188V6.6875H54.6875V7.46875H57.0625V17.375C57.0625 18.3333 56.7396 18.9062 56.0938 19.0938C55.7812 19.1771 55.3125 19.2188 54.6875 19.2188V20H61.9688C61.9688 19.5417 61.8125 19.2917 61.5 19.25C61.4167 19.2292 61.3125 19.2188 61.1875 19.2188ZM60.0625 2.21875C60.0625 1.46875 59.7292 0.916667 59.0625 0.5625C58.7917 0.4375 58.5208 0.375 58.25 0.375C57.4792 0.375 56.9271 0.71875 56.5938 1.40625C56.4688 1.67708 56.4062 1.94792 56.4062 2.21875C56.4062 3.01042 56.7604 3.57292 57.4688 3.90625C57.7188 4.01042 57.9792 4.0625 58.25 4.0625C59 4.0625 59.5417 3.71875 59.875 3.03125C60 2.76042 60.0625 2.48958 60.0625 2.21875ZM67.1562 11.3438C67.1562 8.73958 67.9896 7.34375 69.6562 7.15625C69.8021 7.13542 69.9479 7.125 70.0938 7.125C71.8021 7.125 72.7604 8.1875 72.9688 10.3125C72.9896 10.625 73 10.9688 73 11.3438C72.8125 14.0938 71.8438 15.5312 70.0938 15.6562C68.2604 15.6562 67.2812 14.4062 67.1562 11.9062C67.1562 11.7188 67.1562 11.5312 67.1562 11.3438ZM70.125 6.34375C68.125 6.34375 66.5729 6.98958 65.4688 8.28125C64.7396 9.15625 64.375 10.1771 64.375 11.3438C64.375 12.9062 65.125 14.2188 66.625 15.2812C66.8125 15.4062 66.9896 15.5208 67.1562 15.625C65.8646 15.625 65.0312 16.1875 64.6562 17.3125C64.5729 17.6042 64.5312 17.9062 64.5312 18.2188C64.5521 19.3229 64.9896 20.1458 65.8438 20.6875C65.1771 21.4167 64.8438 22.1354 64.8438 22.8438C64.8438 23.9896 65.5312 24.8438 66.9062 25.4062C67.8021 25.7812 68.8854 25.9688 70.1562 25.9688C73.3646 25.9688 75.4792 25.1979 76.5 23.6562C76.8333 23.1354 77 22.5833 77 22C77 20.1458 75.9479 19.0833 73.8438 18.8125C73.5729 18.7708 73.2917 18.75 73 18.75L67.1562 18.625C66.2604 18.5625 65.8021 18.1667 65.7812 17.4375C65.7812 16.9167 66.0938 16.5938 66.7188 16.4688C66.8646 16.4271 67.0208 16.4062 67.1875 16.4062L69.9688 16.4375H70.0625C71.9792 16.4375 73.5 15.7917 74.625 14.5C75.3958 13.5833 75.7812 12.5208 75.7812 11.3125C75.7604 9.75 75.1667 8.51042 74 7.59375C74.3125 6.86458 74.75 6.46875 75.3125 6.40625C75.6042 6.40625 75.9271 6.57292 76.2812 6.90625C76.5104 7.11458 76.7292 7.21875 76.9375 7.21875C77.4583 7.21875 77.7708 6.95833 77.875 6.4375C77.8958 6.33333 77.9062 6.25 77.9062 6.1875C77.9062 5.5 77.5729 5.03125 76.9062 4.78125C76.6771 4.69792 76.4375 4.65625 76.1875 4.65625C75.2083 4.65625 74.4167 5.125 73.8125 6.0625C73.5833 6.39583 73.4167 6.75 73.3125 7.125C72.3542 6.60417 71.2917 6.34375 70.125 6.34375ZM70.1562 25.1562C68.0312 25.1562 66.6875 24.625 66.125 23.5625C65.9792 23.2708 65.9062 22.9792 65.9062 22.6875C65.9271 22.1458 66.1562 21.6042 66.5938 21.0625C66.9688 21.1667 67.3333 21.2188 67.6875 21.2188L72.8125 21.2812C74.2708 21.3021 75.125 21.6042 75.375 22.1875C75.4583 22.3958 75.5 22.6146 75.5 22.8438C75.5 23.7812 74.6354 24.4583 72.9062 24.875C72.0729 25.0625 71.1562 25.1562 70.1562 25.1562Z" fill="#154F4B"/>
</svg>
